####
#
# OBJ File Generated by Meshlab
#
####
# Object door_2.obj
#
# Vertices: 128
# Faces: 240
#
####
mtllib ./door_2.obj.mtl

vn -0.353239 -0.115488 6.256944
v -0.315066 0.023592 0.018643
vn -0.353239 0.115488 6.256942
v -0.315066 1.956478 0.018643
vn 0.353240 0.115488 6.256944
v 0.315066 1.956478 0.018643
vn 0.353239 -0.115488 6.256943
v 0.315066 0.023592 0.018643
vn 3.382706 -0.533019 2.809686
v 0.322689 0.023592 0.017779
vn 3.382707 0.533018 2.809685
v 0.322689 1.956478 0.017779
vn 3.382705 0.533018 -2.809687
v 0.322689 1.956478 -0.053645
vn 3.382706 -0.533019 -2.809684
v 0.322689 0.023592 -0.053645
vn -1.529143 -2.127311 1.884721
v -0.315066 0.000211 0.017779
vn 1.529143 -2.127311 1.884720
v 0.315066 0.000211 0.017779
vn 1.529143 -2.127310 -1.884721
v 0.315066 0.000211 -0.053645
vn -1.529143 -2.127311 -1.884720
v -0.315066 0.000211 -0.053645
vn 1.529143 2.127310 1.884721
v 0.315066 1.979859 0.017779
vn -1.529143 2.127310 1.884720
v -0.315066 1.979859 0.017779
vn -1.529143 2.127310 -1.884721
v -0.315066 1.979859 -0.053645
vn 1.529143 2.127310 -1.884720
v 0.315066 1.979859 -0.053645
vn -0.353239 0.115488 -6.256943
v -0.315066 1.956478 -0.054509
vn -0.353238 -0.115488 -6.256943
v -0.315066 0.023592 -0.054509
vn 0.353239 -0.115488 -6.256944
v 0.315066 0.023592 -0.054509
vn 0.353239 0.115488 -6.256943
v 0.315066 1.956478 -0.054509
vn -3.382706 0.533018 2.809687
v -0.322689 1.956478 0.017779
vn -3.382706 -0.533019 2.809684
v -0.322689 0.023592 0.017779
vn -3.382705 -0.533019 -2.809686
v -0.322689 0.023592 -0.053645
vn -3.382706 0.533018 -2.809685
v -0.322689 1.956478 -0.053645
vn -2.538577 -1.237256 2.234588
v -0.670000 1.991722 0.063070
vn -1.570796 1.570796 1.570765
v -0.670000 2.290777 0.048328
vn 1.570796 1.570796 1.570796
v 0.670000 2.290777 0.048328
vn 2.538576 -1.237256 2.234588
v 0.670000 1.991722 0.063070
vn -2.538579 -1.237256 -2.234588
v -0.670000 1.991722 -0.236697
vn -1.570795 1.570796 -1.570796
v -0.670000 2.290777 -0.236697
vn 1.570795 1.570796 -1.570796
v 0.670000 2.290777 -0.236697
vn 2.538579 -1.237256 -2.234588
v 0.670000 1.991722 -0.236697
vn -2.488045 0.955054 2.817901
v -0.670000 2.258190 0.063070
vn 2.488045 0.955054 2.817902
v 0.670000 2.258190 0.063070
vn 3.795140 0.955054 2.817901
v 0.670000 2.277440 0.048328
vn -3.795140 0.955054 2.817902
v -0.670000 2.277440 0.048328
vn 1.570796 -1.570796 4.712385
v -0.333333 1.991722 0.063070
vn -1.570796 -1.570796 4.712383
v 0.333333 1.991722 0.063070
vn 1.570796 -1.570796 -4.712390
v -0.333333 1.991722 -0.236697
vn -1.570796 -1.570796 -4.712389
v 0.333333 1.991722 -0.236697
vn 0.000000 1.910108 5.635804
v -0.333333 2.277440 0.048328
vn 0.000000 1.910109 5.635804
v 0.333333 2.277440 0.048328
vn 0.000000 1.910108 5.635803
v 0.333333 2.258190 0.063070
vn 0.000000 1.910109 2.494211
v -0.333333 2.258190 0.063070
vn 1.570796 -1.570796 1.570796
v -0.333333 -0.007512 0.063070
vn -1.570796 -1.570796 1.570796
v -0.627431 -0.007512 0.063070
vn -1.570796 -1.570796 -1.570797
v -0.627431 -0.007512 -0.236697
vn 1.570796 -1.570796 -1.570796
v -0.333333 -0.007512 -0.236697
vn 1.570796 -1.570796 -1.570796
v 0.627431 -0.007512 -0.236697
vn 1.570796 -1.570796 1.570791
v 0.627431 -0.007512 0.063070
vn -1.570796 -1.570796 1.570796
v 0.333333 -0.007512 0.063070
vn -1.570796 -1.570796 -1.570796
v 0.333333 -0.007512 -0.236697
vn -2.538576 -1.237256 4.048598
v -0.627431 1.958425 0.063070
vn -2.538577 -1.237256 -4.048597
v -0.627431 1.958425 -0.236697
vn 2.538576 -1.237256 -4.048597
v 0.627431 1.958425 -0.236697
vn 2.538577 -1.237256 4.048597
v 0.627431 1.958425 0.063070
vn -1.037910 -0.731398 2.749779
v -0.568611 -0.007512 0.063070
vn -1.022669 -2.441907 2.763021
v -0.556840 -0.007512 0.073299
vn 0.745022 -2.643804 2.953663
v -0.370467 -0.007512 0.073299
vn 0.738239 -0.485722 2.957294
v -0.351369 -0.007512 0.063070
vn -0.838371 -0.561124 2.899146
v 0.351369 -0.007512 0.063070
vn -0.841780 -2.574115 2.897001
v 0.367530 -0.007512 0.073299
vn 1.143372 -2.336251 2.647798
v 0.559107 -0.007512 0.073299
vn 1.157999 -0.839128 2.632032
v 0.568611 -0.007512 0.063070
vn -0.497291 0.497856 6.165269
v -0.602667 2.204896 0.063070
vn -1.336132 1.235867 5.271253
v -0.588218 2.189770 0.073299
vn 0.386169 -0.324565 6.223753
v -0.387077 2.030477 0.073299
vn 0.690927 -1.515900 5.553694
v -0.358997 2.016374 0.063070
vn 0.527910 0.561274 6.141174
v 0.602667 2.204896 0.063070
vn 1.603796 1.165826 5.051811
v 0.591362 2.189770 0.073299
vn -0.406057 -0.347366 6.216185
v 0.384604 2.030477 0.073299
vn -0.764004 -1.487401 5.525640
v 0.358997 2.016374 0.063070
vn -1.570796 -1.570796 1.570796
v -0.108540 2.055542 0.088390
vn -1.570796 1.570796 1.570796
v -0.108540 2.163542 0.088390
vn 1.570796 1.570796 1.570796
v 0.108540 2.163542 0.088390
vn 1.570796 -1.570796 1.570796
v 0.108540 2.055542 0.088390
vn -1.570796 -1.570796 -1.570796
v -0.108540 2.055542 -0.019610
vn -1.570796 1.570796 -1.570796
v -0.108540 2.163542 -0.019610
vn 1.570796 1.570796 -1.570796
v 0.108540 2.163542 -0.019610
vn 1.570796 -1.570796 -1.570796
v 0.108540 2.055542 -0.019610
vn -2.538577 -1.237256 2.234588
v -0.670000 1.991722 0.063070
vn -1.570796 1.570796 1.570765
v -0.670000 2.290777 0.048328
vn 1.570796 1.570796 1.570796
v 0.670000 2.290777 0.048328
vn 2.538576 -1.237256 2.234588
v 0.670000 1.991722 0.063070
vn -2.538579 -1.237256 -2.234588
v -0.670000 1.991722 -0.236697
vn -1.570795 1.570796 -1.570796
v -0.670000 2.290777 -0.236697
vn 1.570795 1.570796 -1.570796
v 0.670000 2.290777 -0.236697
vn 2.538579 -1.237256 -2.234588
v 0.670000 1.991722 -0.236697
vn -2.488045 0.955054 2.817901
v -0.670000 2.258190 0.063070
vn 2.488045 0.955054 2.817902
v 0.670000 2.258190 0.063070
vn 3.795140 0.955054 2.817901
v 0.670000 2.277440 0.048328
vn -3.795140 0.955054 2.817902
v -0.670000 2.277440 0.048328
vn 1.570796 -1.570796 4.712385
v -0.333333 1.991722 0.063070
vn -1.570796 -1.570796 4.712383
v 0.333333 1.991722 0.063070
vn 1.570796 -1.570796 -4.712390
v -0.333333 1.991722 -0.236697
vn -1.570796 -1.570796 -4.712389
v 0.333333 1.991722 -0.236697
vn 0.000000 1.910108 5.635804
v -0.333333 2.277440 0.048328
vn 0.000000 1.910109 5.635804
v 0.333333 2.277440 0.048328
vn 0.000000 1.910108 5.635803
v 0.333333 2.258190 0.063070
vn 0.000000 1.910109 2.494211
v -0.333333 2.258190 0.063070
vn 1.570796 -1.570796 1.570796
v -0.333333 -0.007512 0.063070
vn -1.570796 -1.570796 1.570796
v -0.627431 -0.007512 0.063070
vn -1.570796 -1.570796 -1.570797
v -0.627431 -0.007512 -0.236697
vn 1.570796 -1.570796 -1.570796
v -0.333333 -0.007512 -0.236697
vn 1.570796 -1.570796 -1.570796
v 0.627431 -0.007512 -0.236697
vn 1.570796 -1.570796 1.570791
v 0.627431 -0.007512 0.063070
vn -1.570796 -1.570796 1.570796
v 0.333333 -0.007512 0.063070
vn -1.570796 -1.570796 -1.570796
v 0.333333 -0.007512 -0.236697
vn -2.538576 -1.237256 4.048598
v -0.627431 1.958425 0.063070
vn -2.538577 -1.237256 -4.048597
v -0.627431 1.958425 -0.236697
vn 2.538576 -1.237256 -4.048597
v 0.627431 1.958425 -0.236697
vn 2.538577 -1.237256 4.048597
v 0.627431 1.958425 0.063070
vn -1.037910 -0.731398 2.749779
v -0.568611 -0.007512 0.063070
vn -1.022669 -2.441907 2.763021
v -0.556840 -0.007512 0.073299
vn 0.745022 -2.643804 2.953663
v -0.370467 -0.007512 0.073299
vn 0.738239 -0.485722 2.957294
v -0.351369 -0.007512 0.063070
vn -0.838371 -0.561124 2.899146
v 0.351369 -0.007512 0.063070
vn -0.841780 -2.574115 2.897001
v 0.367530 -0.007512 0.073299
vn 1.143372 -2.336251 2.647798
v 0.559107 -0.007512 0.073299
vn 1.157999 -0.839128 2.632032
v 0.568611 -0.007512 0.063070
vn -0.497291 0.497856 6.165269
v -0.602667 2.204896 0.063070
vn -1.336132 1.235867 5.271253
v -0.588218 2.189770 0.073299
vn 0.386169 -0.324565 6.223753
v -0.387077 2.030477 0.073299
vn 0.690927 -1.515900 5.553694
v -0.358997 2.016374 0.063070
vn 0.527910 0.561274 6.141174
v 0.602667 2.204896 0.063070
vn 1.603796 1.165826 5.051811
v 0.591362 2.189770 0.073299
vn -0.406057 -0.347366 6.216185
v 0.384604 2.030477 0.073299
vn -0.764004 -1.487401 5.525640
v 0.358997 2.016374 0.063070
# 128 vertices, 0 vertices normals


usemtl material_0
f 1//1 4//4 3//3
f 1//1 3//3 2//2
f 1//1 9//9 10//10
f 1//1 10//10 4//4
f 1//1 22//22 9//9
f 2//2 21//21 22//22
f 2//2 22//22 1//1
f 3//3 13//13 14//14
f 3//3 14//14 2//2
f 4//4 5//5 6//6
f 4//4 6//6 3//3
f 4//4 10//10 5//5
f 5//5 8//8 7//7
f 5//5 7//7 6//6
f 5//5 10//10 11//11
f 5//5 11//11 8//8
f 6//6 13//13 3//3
f 7//7 16//16 13//13
f 7//7 13//13 6//6
f 7//7 20//20 16//16
f 8//8 19//19 20//20
f 8//8 20//20 7//7
f 9//9 12//12 11//11
f 9//9 11//11 10//10
f 9//9 22//22 23//23
f 9//9 23//23 12//12
f 11//11 19//19 8//8
f 12//12 18//18 19//19
f 12//12 19//19 11//11
f 12//12 23//23 18//18
f 13//13 16//16 15//15
f 13//13 15//15 14//14
f 14//14 21//21 2//2
f 15//15 24//24 21//21
f 15//15 21//21 14//14
f 16//16 20//20 17//17
f 16//16 17//17 15//15
f 17//17 20//20 19//19
f 17//17 19//19 18//18
f 17//17 24//24 15//15
f 18//18 23//23 24//24
f 18//18 24//24 17//17
f 21//21 24//24 23//23
f 21//21 23//23 22//22
f 53//53 46//46 57//57
f 53//53 57//57 65//65
f 53//53 65//65 33//33
f 53//53 33//33 25//25
f 26//26 36//36 41//41
f 26//26 41//41 42//42
f 26//26 42//42 35//35
f 26//26 35//35 27//27
f 27//27 31//31 30//30
f 27//27 30//30 26//26
f 28//28 56//56 55//55
f 28//28 55//55 32//32
f 29//29 54//54 53//53
f 29//29 53//53 25//25
f 30//30 29//29 36//36
f 30//30 36//36 26//26
f 30//30 31//31 32//32
f 30//30 32//32 40//40
f 30//30 40//40 39//39
f 30//30 39//39 29//29
f 32//32 35//35 34//34
f 32//32 34//34 28//28
f 55//55 49//49 52//52
f 55//55 52//52 40//40
f 55//55 40//40 32//32
f 33//33 36//36 29//29
f 33//33 29//29 25//25
f 33//33 44//44 41//41
f 33//33 41//41 36//36
f 64//64 50//50 69//69
f 69//69 50//50 56//56
f 69//69 56//56 34//34
f 34//34 56//56 28//28
f 35//35 32//32 31//31
f 35//35 31//31 27//27
f 35//35 42//42 43//43
f 35//35 43//43 34//34
f 37//37 39//39 40//40
f 37//37 40//40 38//38
f 37//37 45//45 48//48
f 37//37 48//48 39//39
f 37//37 68//68 60//60
f 37//37 60//60 45//45
f 38//38 72//72 68//68
f 38//38 68//68 37//37
f 39//39 48//48 47//47
f 39//39 47//47 54//54
f 39//39 54//54 29//29
f 40//40 52//52 51//51
f 40//40 51//51 38//38
f 41//41 44//44 43//43
f 41//41 43//43 42//42
f 43//43 44//44 33//33
f 43//43 33//33 65//65
f 43//43 65//65 69//69
f 43//43 69//69 34//34
f 47//47 45//45 46//46
f 46//46 45//45 60//60
f 46//46 60//60 57//57
f 57//57 60//60 59//59
f 57//57 59//59 58//58
f 45//45 47//47 48//48
f 46//46 53//53 54//54
f 46//46 54//54 47//47
f 49//49 55//55 56//56
f 49//49 56//56 50//50
f 52//52 50//50 51//51
f 51//51 50//50 64//64
f 51//51 64//64 61//61
f 61//61 64//64 63//63
f 61//61 63//63 62//62
f 50//50 52//52 49//49
f 58//58 66//66 65//65
f 58//58 65//65 57//57
f 59//59 67//67 66//66
f 59//59 66//66 58//58
f 60//60 68//68 67//67
f 60//60 67//67 59//59
f 61//61 72//72 38//38
f 61//61 38//38 51//51
f 62//62 71//71 72//72
f 62//62 72//72 61//61
f 63//63 70//70 71//71
f 63//63 71//71 62//62
f 64//64 69//69 70//70
f 64//64 70//70 63//63
f 66//66 70//70 69//69
f 66//66 69//69 65//65
f 67//67 71//71 70//70
f 67//67 70//70 66//66
f 68//68 72//72 71//71
f 68//68 71//71 67//67
f 73//73 76//76 75//75
f 73//73 75//75 74//74
f 73//73 77//77 80//80
f 73//73 80//80 76//76
f 74//74 78//78 77//77
f 74//74 77//77 73//73
f 75//75 79//79 78//78
f 75//75 78//78 74//74
f 76//76 80//80 79//79
f 76//76 79//79 75//75
f 78//78 79//79 80//80
f 78//78 80//80 77//77
f 109//109 102//102 113//113
f 109//109 113//113 121//121
f 109//109 121//121 89//89
f 109//109 89//89 81//81
f 82//82 92//92 97//97
f 82//82 97//97 98//98
f 82//82 98//98 91//91
f 82//82 91//91 83//83
f 83//83 87//87 86//86
f 83//83 86//86 82//82
f 84//84 112//112 111//111
f 84//84 111//111 88//88
f 85//85 110//110 109//109
f 85//85 109//109 81//81
f 86//86 85//85 92//92
f 86//86 92//92 82//82
f 86//86 87//87 88//88
f 86//86 88//88 96//96
f 86//86 96//96 95//95
f 86//86 95//95 85//85
f 88//88 91//91 90//90
f 88//88 90//90 84//84
f 111//111 105//105 108//108
f 111//111 108//108 96//96
f 111//111 96//96 88//88
f 89//89 92//92 85//85
f 89//89 85//85 81//81
f 89//89 100//100 97//97
f 89//89 97//97 92//92
f 120//120 106//106 125//125
f 125//125 106//106 112//112
f 125//125 112//112 90//90
f 90//90 112//112 84//84
f 91//91 88//88 87//87
f 91//91 87//87 83//83
f 91//91 98//98 99//99
f 91//91 99//99 90//90
f 93//93 95//95 96//96
f 93//93 96//96 94//94
f 93//93 101//101 104//104
f 93//93 104//104 95//95
f 93//93 124//124 116//116
f 93//93 116//116 101//101
f 94//94 128//128 124//124
f 94//94 124//124 93//93
f 95//95 104//104 103//103
f 95//95 103//103 110//110
f 95//95 110//110 85//85
f 96//96 108//108 107//107
f 96//96 107//107 94//94
f 97//97 100//100 99//99
f 97//97 99//99 98//98
f 99//99 100//100 89//89
f 99//99 89//89 121//121
f 99//99 121//121 125//125
f 99//99 125//125 90//90
f 103//103 101//101 102//102
f 102//102 101//101 116//116
f 102//102 116//116 113//113
f 113//113 116//116 115//115
f 113//113 115//115 114//114
f 101//101 103//103 104//104
f 102//102 109//109 110//110
f 102//102 110//110 103//103
f 105//105 111//111 112//112
f 105//105 112//112 106//106
f 108//108 106//106 107//107
f 107//107 106//106 120//120
f 107//107 120//120 117//117
f 117//117 120//120 119//119
f 117//117 119//119 118//118
f 106//106 108//108 105//105
f 114//114 122//122 121//121
f 114//114 121//121 113//113
f 115//115 123//123 122//122
f 115//115 122//122 114//114
f 116//116 124//124 123//123
f 116//116 123//123 115//115
f 117//117 128//128 94//94
f 117//117 94//94 107//107
f 118//118 127//127 128//128
f 118//118 128//128 117//117
f 119//119 126//126 127//127
f 119//119 127//127 118//118
f 120//120 125//125 126//126
f 120//120 126//126 119//119
f 122//122 126//126 125//125
f 122//122 125//125 121//121
f 123//123 127//127 126//126
f 123//123 126//126 122//122
f 124//124 128//128 127//127
f 124//124 127//127 123//123
# 240 faces, 0 coords texture

# End of File