#
# Exported by OpenBRF -- marco tarini
#
s door_big
newmtl material_0
Ka 0.8 0.8 0.8
Kd 0.2 0.2 0.2
usemtl material_0
v -0.914 -0.004246 -0.873711
v -0.914 3.39115 -0.873711
v 0.914 3.39115 -0.873711
v 0.914 -0.004246 -0.873711
v -0.914 -0.004246 -1.08009
v -0.914 3.39115 -1.08009
v 0.914 3.39115 -1.08009
v 0.914 -0.004246 -1.08009
v -1 3.51847 -0.973913
v 1 3.51847 -0.973913
v -0.512374 3.30179 -0.973913
v 0.512374 3.30179 -0.973913
v 1 -0.012289 -0.973913
v 0.512374 -0.012289 -0.973913
v -1 -0.012289 -0.973913
v -0.512374 -0.012289 -0.973913
v -1 3.51847 0.062763
v 1 3.51847 0.062763
v -0.766373 3.30179 0.062763
v 0.766373 3.30179 0.062763
v 1 -0.012289 0.062763
v 0.982282 -0.012289 0.080481
v 0.766373 -0.012289 0.062763
v 0.784092 -0.012289 0.080481
v -0.784092 -0.012289 0.080481
v -0.766373 -0.012289 0.062763
v -1 -0.012289 0.062763
v -0.982282 -0.012289 0.080481
v -0.965278 3.50284 0.085365
v -0.983644 3.48495 0.085365
v -0.757633 3.31025 0.085365
v -0.776079 3.29237 0.085365
v -0.974461 3.49389 0.083458
v -0.766856 3.30131 0.083458
v 0.965803 3.50227 0.057264
v 0.983119 3.48552 0.057264
v 0.758158 3.30968 0.057264
v 0.775553 3.29293 0.057264
v 0.974461 3.49389 0.055472
v 0.766856 3.30131 0.055472
v 0.757019 -0.012289 -0.041164
v -0.757019 3.30179 -0.041164
v 0.757019 3.30179 -0.041164
v -0.757019 -0.012289 -0.041164
vn 0 0 1
vt 3.17475e-39 1
vn 0 0 1
vt 3.17475e-39 1
vn 0 0 1
vt 3.17475e-39 1
vn 0 0 1
vt 3.17475e-39 1
vn 0 -1 0
vt 3.17475e-39 1
vn 0 -1 0
vt 3.17475e-39 1
vn 0 -1 0
vt 3.17475e-39 1
vn -1 0 0
vt 3.17475e-39 1
vn -1 0 0
vt 3.17475e-39 1
vn -1 0 0
vt 3.17475e-39 1
vn -1 0 0
vt 3.17475e-39 1
vn 0 1 0
vt 3.17475e-39 1
vn 0 1 0
vt 3.17475e-39 1
vn 0 1 0
vt 3.17475e-39 1
vn 0 1 0
vt 3.17475e-39 1
vn 1 0 0
vt 3.17475e-39 1
vn 1 0 0
vt 3.17475e-39 1
vn 1 0 0
vt 3.17475e-39 1
vn 1 0 0
vt 3.17475e-39 1
vn 0 -1 0
vt 3.17475e-39 1
vn 0 0 -1
vt 3.17475e-39 1
vn 0 0 -1
vt 3.17475e-39 1
vn 0 0 -1
vt 3.17475e-39 1
vn 0 0 -1
vt 3.17475e-39 1
vn 0 1 0
vt 3.17475e-39 1
vn 0 1 0
vt 3.17475e-39 1
vn 0 1 0
vt 3.17475e-39 1
vn -1 0 0
vt 3.17475e-39 1
vn -1 0 0
vt 3.17475e-39 1
vn -1 0 0
vt 3.17475e-39 1
vn 0 0 -1
vt 3.17475e-39 1
vn 0 0 -1
vt 3.17475e-39 1
vn 0 0 -1
vt 3.17475e-39 1
vn 0 0 -1
vt 3.17475e-39 1
vn 0 0 -1
vt 3.17475e-39 1
vn 1 0 0
vt 3.17475e-39 1
vn 1 0 0
vt 3.17475e-39 1
vn 1 0 0
vt 3.17475e-39 1
vn 0 0 -1
vt 3.17475e-39 1
vn 0 0 -1
vt 3.17475e-39 1
vn 0.967282 0 0.253703
vt 3.17475e-39 1
vn 0.967282 0 0.253703
vt 3.17475e-39 1
vn 0.967282 0 0.253702
vt 3.17475e-39 1
vn 0 -1 0
vt 3.17475e-39 1
vn 0 -1 0
vt 3.17475e-39 1
vn 0 -1 0
vt 3.17475e-39 1
vn 0 -1 0
vt 3.17475e-39 1
vn 0 0 -1
vt 3.17475e-39 1
vn 0 -1 0
vt 3.17475e-39 1
vn 0 -1 0
vt 3.17475e-39 1
vn 0 -1 0
vt 3.17475e-39 1
vn -0.967282 0 0.253702
vt 3.17475e-39 1
vn -0.967282 0 0.253703
vt 3.17475e-39 1
vn -0.967282 0 0.253703
vt 3.17475e-39 1
vn -1 0 0
vt 3.17475e-39 1
vn 0 -1 0
vt 3.17475e-39 1
vn 0 -1 0
vt 3.17475e-39 1
vn 0 -1 0
vt 3.17475e-39 1
vn 0 -1 0
vt 3.17475e-39 1
vn 0 1 0
vt 3.17475e-39 1
vn 0 0 0
vt 3.17475e-39 1
vn 0 0 0
vt 3.17475e-39 1
vn 0 -0.321413 0.946939
vt 3.17475e-39 1
vn 0 -0.321413 0.946939
vt 3.17475e-39 1
vn 0 -0.321413 0.946939
vt 3.17475e-39 1
vn 1 0 0
vt 3.17475e-39 1
vn 0 0 0
vt 3.17475e-39 1
vn 0 0 0
vt 3.17475e-39 1
vn 0 0 0
vt 3.17475e-39 1
vn 0 0 0
vt 3.17475e-39 1
vn 0 0 0
vt 3.17475e-39 1
vn 0 -1 0
vt 3.17475e-39 1
vn 0 -1 0
vt 3.17475e-39 1
vn 0.995974 4.15652e-11 0.0896431
vt 3.17475e-39 1
vn 0.995974 4.15652e-11 0.0896431
vt 3.17475e-39 1
vn 0.995974 4.15652e-11 0.0896431
vt 3.17475e-39 1
vn 0 0.57145 0.820637
vt 3.17475e-39 1
vn 0 0.57145 0.820637
vt 3.17475e-39 1
vn 0 0.57145 0.820637
vt 3.17475e-39 1
vn 0 0 0
vt 3.17475e-39 1
vn -0.995974 0 0.0896431
vt 3.17475e-39 1
vn -0.995974 0 0.0896431
vt 3.17475e-39 1
vn -0.995974 0 0.0896431
vt 3.17475e-39 1
vn 0 -1 0
vt 3.17475e-39 1
vn 0 -1 0
vt 3.17475e-39 1
vn 0.707099 0.00452423 0.7071
vt 3.17475e-39 1
vn 0.707099 0.00452423 0.7071
vt 3.17475e-39 1
vn 0.707099 0.00452423 0.7071
vt 3.17475e-39 1
vn 0 -1 0
vt 3.17475e-39 1
vn 0 -1 0
vt 3.17475e-39 1
vn 0 0.00702417 0.999975
vt 3.17475e-39 1
vn 0 0.00702417 0.999975
vt 3.17475e-39 1
vn 0 0.00702417 0.999975
vt 3.17475e-39 1
vn 0 0 0
vt 3.17475e-39 1
vn 0.513877 0 0.857864
vt 3.17475e-39 1
vn 0.513877 0 0.857864
vt 3.17475e-39 1
vn 0.513877 0 0.857864
vt 3.17475e-39 1
vn -0.995974 -4.15652e-11 0.0896431
vt 3.17475e-39 1
vn -0.995974 -4.15652e-11 0.0896431
vt 3.17475e-39 1
vn -0.995974 -4.15652e-11 0.0896431
vt 3.17475e-39 1
vn -0.707083 0.00314033 0.707124
vt 3.17475e-39 1
vn -0.707083 0.00314034 0.707124
vt 3.17475e-39 1
vn -0.707083 0.00314033 0.707124
vt 3.17475e-39 1
vn 0 -1 0
vt 3.17475e-39 1
vn 0 -1 0
vt 3.17475e-39 1
vn 0 -1 0
vt 3.17475e-39 1
vn 0 -0.00139653 0.999999
vt 3.17475e-39 1
vn 0 -0.00139653 0.999999
vt 3.17475e-39 1
vn 0 -0.00139653 0.999999
vt 3.17475e-39 1
vn -0.00136817 -0.00147459 0.999998
vt 3.17475e-39 1
vn -0.00136817 -0.00147459 0.999998
vt 3.17475e-39 1
vn -0.00136817 -0.00147459 0.999998
vt 3.17475e-39 1
vn 0.707084 -0.00275958 0.707125
vt 3.17475e-39 1
vn 0.707084 -0.00275958 0.707125
vt 3.17475e-39 1
vn 0.707084 -0.00275958 0.707125
vt 3.17475e-39 1
vn 0.995974 0 0.0896431
vt 3.17475e-39 1
vn 0.995974 0 0.0896431
vt 3.17475e-39 1
vn 0.995974 0 0.0896431
vt 3.17475e-39 1
vn -0.707106 0 0.707107
vt 3.17475e-39 1
vn -0.707106 0 0.707107
vt 3.17475e-39 1
vn -0.707107 0 0.707107
vt 3.17475e-39 1
vn -0.810926 -0.001133 0.585148
vt 3.17475e-39 1
vn -0.810926 -0.001133 0.585148
vt 3.17475e-39 1
vn -0.810926 -0.001133 0.585148
vt 3.17475e-39 1
vn -0.0999852 -0.107804 0.989132
vt 3.17475e-39 1
vn -0.0999852 -0.107804 0.989132
vt 3.17475e-39 1
vn -0.0999852 -0.107804 0.989132
vt 3.17475e-39 1
vn 0.00839376 0.828363 0.560128
vt 3.17475e-39 1
vn 0.00839376 0.828363 0.560128
vt 3.17475e-39 1
vn 0.00839376 0.828363 0.560128
vt 3.17475e-39 1
vn 0.014544 -0.0156814 0.999771
vt 3.17475e-39 1
vn 0.014544 -0.0156814 0.999771
vt 3.17475e-39 1
vn 0.014544 -0.0156814 0.999771
vt 3.17475e-39 1
vn -0.438354 0.267115 0.858193
vt 3.17475e-39 1
vn -0.438354 0.267115 0.858193
vt 3.17475e-39 1
vn -0.438354 0.267115 0.858193
vt 3.17475e-39 1
vn 0 0 0
vt 3.17475e-39 1
vn -0.260112 0.449345 0.854652
vt 3.17475e-39 1
vn -0.260112 0.449345 0.854652
vt 3.17475e-39 1
vn -0.260112 0.449345 0.854652
vt 3.17475e-39 1
vn 0.69617 -0.717877 -0.000407417
vt 3.17475e-39 1
vn 0.696122 -0.717923 -0.000409609
vt 3.17475e-39 1
vn 0.696124 -0.717921 -0.000409525
vt 3.17475e-39 1
vn 0.0185394 0.0199893 0.999628
vt 3.17475e-39 1
vn 0.0185394 0.0199893 0.999628
vt 3.17475e-39 1
vn 0.0185394 0.0199893 0.999628
vt 3.17475e-39 1
vn 0.918859 0 0.394587
vt 3.17475e-39 1
vn 0.918859 0 0.394587
vt 3.17475e-39 1
vn 0.918859 0 0.394587
vt 3.17475e-39 1
vn 0.696075 -0.717968 -0.000411739
vt 3.17475e-39 1
vn 0.00611222 -0.93726 0.348577
vt 3.17475e-39 1
vn 0.00611222 -0.93726 0.348576
vt 3.17475e-39 1
vn 0.00611222 -0.93726 0.348577
vt 3.17475e-39 1
vn 0.100214 0.10801 0.989086
vt 3.17475e-39 1
vn 0.100214 0.10801 0.989086
vt 3.17475e-39 1
vn 0.100214 0.10801 0.989086
vt 3.17475e-39 1
vn 0.0999967 0.107796 0.989131
vt 3.17475e-39 1
vn 0.0999967 0.107796 0.989131
vt 3.17475e-39 1
vn 0.0999967 0.107796 0.989131
vt 3.17475e-39 1
vn -0.100203 -0.108019 0.989086
vt 3.17475e-39 1
vn -0.100203 -0.108019 0.989086
vt 3.17475e-39 1
vn -0.100203 -0.108019 0.989086
vt 3.17475e-39 1
vn 0.156061 -0.880218 -0.448175
vt 3.17475e-39 1
vn -0.0386469 -0.247063 0.968228
vt 3.17475e-39 1
vn -0.0386469 -0.247063 0.968228
vt 3.17475e-39 1
vn -0.0386469 -0.247063 0.968228
vt 3.17475e-39 1
vn -0.309732 0 0.950824
vt 3.17475e-39 1
vn -0.309732 0 0.950824
vt 3.17475e-39 1
vn -0.309732 0 0.950824
vt 3.17475e-39 1
vn -0.238999 -0.0394686 0.970217
vt 3.17475e-39 1
vn -0.238999 -0.0394686 0.970217
vt 3.17475e-39 1
vn -0.238999 -0.0394686 0.970217
vt 3.17475e-39 1
vn -0.00615961 0.00663879 0.999959
vt 3.17475e-39 1
vn -0.00615961 0.00663879 0.999959
vt 3.17475e-39 1
vn -0.00615961 0.00663879 0.999959
vt 3.17475e-39 1
vn -0.0999987 0.107778 0.989133
vt 3.17475e-39 1
vn -0.0999987 0.107778 0.989133
vt 3.17475e-39 1
vn -0.0999987 0.107778 0.989133
vt 3.17475e-39 1
vn 0.100193 -0.108029 0.989086
vt 3.17475e-39 1
vn 0.100193 -0.108029 0.989086
vt 3.17475e-39 1
vn 0.100193 -0.108029 0.989086
vt 3.17475e-39 1
vn 0.0999821 -0.10778 0.989134
vt 3.17475e-39 1
vn 0.0999821 -0.10778 0.989134
vt 3.17475e-39 1
vn 0.0999821 -0.10778 0.989134
vt 3.17475e-39 1
vn 0.693709 0.720252 -0.00200511
vt 3.17475e-39 1
vn 0.693709 0.720252 -0.00200511
vt 3.17475e-39 1
vn 0.693709 0.720252 -0.00200511
vt 3.17475e-39 1
vn 0.693711 0.720254 0.000148319
vt 3.17475e-39 1
vn 0.693711 0.720254 0.000148319
vt 3.17475e-39 1
vn 0.693711 0.720254 0.000148319
vt 3.17475e-39 1
vn -0.100205 0.10802 0.989086
vt 3.17475e-39 1
vn -0.100205 0.10802 0.989086
vt 3.17475e-39 1
vn -0.100205 0.10802 0.989086
vt 3.17475e-39 1
vn -0.967282 0 0.253702
vt 3.17475e-39 1
vn 0.967282 0 0.253702
vt 3.17475e-39 1
f 1/1/1 3/2/2 2/3/3
f 1/1/1 4/4/4 3/2/2
f 1/5/5 8/6/6 4/7/7
f 2/8/8 5/9/9 1/10/10
f 2/8/8 6/11/11 5/9/9
f 3/12/12 6/13/13 2/14/14
f 3/12/12 7/15/15 6/13/13
f 4/16/16 7/17/17 3/18/18
f 4/16/16 8/19/19 7/17/17
f 5/20/20 8/6/6 1/5/5
f 6/21/21 8/22/22 5/23/23
f 7/24/24 8/22/22 6/21/21
f 9/25/25 18/26/26 10/27/27
f 9/28/28 27/29/29 17/30/30
f 10/31/31 11/32/32 9/33/33
f 10/31/31 12/34/34 11/32/32
f 10/31/31 14/35/35 12/34/34
f 10/36/36 21/37/37 13/38/38
f 11/32/32 15/39/39 9/33/33
f 11/32/32 16/40/40 15/39/39
f 11/41/41 44/42/42 16/43/43
f 12/44/44 42/45/45 11/46/46
f 12/44/44 43/47/47 42/45/45
f 13/48/48 14/35/35 10/31/31
f 13/49/49 21/50/50 14/51/51
f 14/52/52 41/53/53 12/54/54
f 15/55/55 27/29/29 9/28/28
f 15/56/56 44/57/57 27/58/58
f 16/59/59 44/57/57 15/56/56
f 17/60/60 18/26/26 9/25/25
f 17/61/61 30/62/62 17/61/61
f 17/63/63 35/64/64 18/65/65
f 18/66/66 21/37/37 10/36/36
f 18/67/67 18/67/67 21/68/68
f 19/69/69 19/69/69 26/70/70
f 19/69/69 37/71/71 19/69/69
f 19/72/72 42/45/45 20/73/73
f 19/74/74 44/75/75 42/76/76
f 20/77/77 37/78/78 19/79/79
f 20/80/80 20/80/80 37/71/71
f 20/81/81 43/82/82 23/83/83
f 21/50/50 24/84/84 23/85/85
f 21/86/86 36/87/87 22/88/88
f 21/50/50 41/89/89 14/51/51
f 22/90/90 24/84/84 21/50/50
f 22/91/91 38/92/92 24/93/93
f 23/94/94 20/80/80 20/80/80
f 23/95/95 38/96/96 20/97/97
f 23/85/85 41/89/89 21/50/50
f 23/98/98 43/99/99 41/100/100
f 24/101/101 38/102/102 23/103/103
f 25/104/104 28/105/105 26/106/106
f 25/107/107 30/108/108 28/109/109
f 25/110/110 32/111/111 30/112/112
f 26/106/106 28/105/105 27/58/58
f 26/113/113 32/114/114 25/115/115
f 26/116/116 44/117/117 19/118/118
f 27/119/119 28/120/120 17/121/121
f 27/58/58 44/57/57 26/106/106
f 28/122/122 30/123/123 17/124/124
f 29/125/125 34/126/126 31/127/127
f 29/128/128 35/129/129 17/130/130
f 29/131/131 37/132/132 35/133/133
f 17/134/134 33/135/135 29/136/136
f 17/61/61 35/137/137 17/61/61
f 30/138/138 33/139/139 17/140/140
f 31/141/141 34/142/142 19/143/143
f 31/144/144 37/145/145 29/146/146
f 19/147/147 32/148/148 26/149/149
f 19/143/143 34/142/142 32/150/150
f 19/151/151 37/152/152 31/153/153
f 32/154/154 33/155/155 30/156/156
f 32/157/157 34/158/158 33/159/159
f 33/160/160 34/161/161 29/162/162
f 35/137/137 18/163/163 18/163/163
f 35/164/164 39/165/165 18/166/166
f 18/167/167 36/168/168 21/169/169
f 18/170/170 39/171/171 36/172/172
f 36/173/173 38/174/174 22/175/175
f 36/176/176 40/177/177 38/178/178
f 37/179/179 39/180/180 35/181/181
f 37/182/182 40/183/183 39/184/184
f 20/185/185 38/186/186 37/187/187
f 38/188/188 40/189/189 37/190/190
f 39/191/191 40/192/192 36/193/193
f 41/53/53 43/194/194 12/54/54
f 42/45/45 43/47/47 20/73/73
f 42/195/195 44/42/42 11/41/41
